<svg width="242" height="40" viewBox="0 0 242 40" fill="none" xmlns="http://www.w3.org/2000/svg">
<path d="M224.75 8C225.508 8 226.238 8.09766 226.941 8.29297C227.645 8.48828 228.301 8.76562 228.91 9.125C229.52 9.48438 230.074 9.91797 230.574 10.4258C231.082 10.9258 231.516 11.4805 231.875 12.0898C232.234 12.6992 232.512 13.3555 232.707 14.0586C232.902 14.7617 233 15.4922 233 16.25C233 17.0078 232.902 17.7383 232.707 18.4414C232.512 19.1445 232.234 19.8008 231.875 20.4102C231.516 21.0195 231.082 21.5781 230.574 22.0859C230.074 22.5859 229.52 23.0156 228.91 23.375C228.301 23.7344 227.645 24.0117 226.941 24.207C226.238 24.4023 225.508 24.5 224.75 24.5C223.773 24.5 222.836 24.3359 221.938 24.0078C221.047 23.6797 220.227 23.207 219.477 22.5898L210.277 31.7773C210.129 31.9258 209.953 32 209.75 32C209.547 32 209.371 31.9258 209.223 31.7773C209.074 31.6289 209 31.4531 209 31.25C209 31.0469 209.074 30.8711 209.223 30.7227L218.41 21.5234C217.793 20.7734 217.32 19.9531 216.992 19.0625C216.664 18.1641 216.5 17.2266 216.5 16.25C216.5 15.4922 216.598 14.7617 216.793 14.0586C216.988 13.3555 217.266 12.6992 217.625 12.0898C217.984 11.4805 218.414 10.9258 218.914 10.4258C219.422 9.91797 219.98 9.48438 220.59 9.125C221.199 8.76562 221.855 8.48828 222.559 8.29297C223.262 8.09766 223.992 8 224.75 8ZM224.75 23C225.68 23 226.555 22.8242 227.375 22.4727C228.195 22.1133 228.91 21.6289 229.52 21.0195C230.129 20.4102 230.609 19.6953 230.961 18.875C231.32 18.0547 231.5 17.1797 231.5 16.25C231.5 15.3203 231.32 14.4453 230.961 13.625C230.609 12.8047 230.129 12.0898 229.52 11.4805C228.91 10.8711 228.195 10.3906 227.375 10.0391C226.555 9.67969 225.68 9.5 224.75 9.5C223.82 9.5 222.945 9.67969 222.125 10.0391C221.305 10.3906 220.59 10.8711 219.98 11.4805C219.371 12.0898 218.887 12.8047 218.527 13.625C218.176 14.4453 218 15.3203 218 16.25C218 17.1797 218.176 18.0547 218.527 18.875C218.887 19.6953 219.371 20.4102 219.98 21.0195C220.59 21.6289 221.305 22.1133 222.125 22.4727C222.945 22.8242 223.82 23 224.75 23Z" fill="#FFFCF9"/>
</svg>
